<svg width="92" height="22" viewBox="0 0 92 22" fill="none" xmlns="http://www.w3.org/2000/svg">
<path d="M36.0535 5.12764C37.8395 5.12764 39.5622 5.72894 40.8668 6.79301V5.37005H43.3147V20.8558H40.8668V19.4391C39.5843 20.4969 37.8617 21.095 36.0535 21.095C33.8368 21.095 31.8197 20.2797 30.3757 18.8C28.9443 17.3393 28.159 15.3245 28.159 13.1239C28.159 10.9202 28.9475 8.89912 30.3757 7.43209C31.8228 5.94616 33.84 5.12764 36.0535 5.12764ZM19.1087 5.07097C21.1132 5.07097 22.9308 5.7982 24.2323 7.12357C25.6162 8.53394 26.354 10.5141 26.3698 12.8563V13.6528H13.7633C13.9153 16.5617 16.1478 18.7213 19.0517 18.7213C21.1353 18.7213 22.6268 17.8367 23.7478 15.9384L23.884 15.7086L26.0057 17.0654L25.8822 17.2763C24.4445 19.735 22.0822 21.0352 19.0485 21.0352C14.4727 21.0352 11.2775 17.758 11.2775 13.0673C11.2775 8.4332 14.5708 5.07097 19.1087 5.07097ZM84.2248 5.07097C86.2293 5.07097 88.047 5.7982 89.3485 7.12357C90.7323 8.53394 91.4702 10.5141 91.486 12.8563V13.6528H78.8795C79.0315 16.5617 81.264 18.7213 84.1678 18.7213C86.2515 18.7213 87.743 17.8367 88.864 15.9384L89.0002 15.7086L91.1218 17.0654L90.9983 17.2763C89.5607 19.735 87.1983 21.0352 84.1647 21.0352C79.5888 21.0352 76.3937 17.758 76.3905 13.0673C76.3905 8.4332 79.687 5.07097 84.2248 5.07097ZM10.3338 5.33857V7.65246H3.24049V20.8526H0.76416V5.33857H10.3338ZM68.5308 5.12764C72.0775 5.12764 74.2815 7.54857 74.2815 11.446V20.8243H71.8052V11.446C71.8052 9.01245 70.4023 7.44153 68.23 7.44153C65.437 7.44153 64.4427 9.3556 64.4427 11.1469V20.8275H61.9663V11.4491C61.9663 8.97783 60.6078 7.44468 58.4197 7.44468C56.6178 7.44468 54.6925 8.83616 54.6925 10.9076V20.818H52.2162V5.33542H54.6925V6.83709C55.7153 5.72894 57.172 5.12764 58.8725 5.12764C61.39 5.12764 62.7675 6.3932 63.5085 7.59264C64.6358 6.02172 66.4408 5.12764 68.5308 5.12764ZM49.002 0.767456V20.8243H46.5257V0.767456H49.002ZM35.93 7.59264C32.9122 7.59264 30.6353 9.97264 30.6353 13.1271C30.6353 16.2658 32.9122 18.63 35.93 18.6332C39.0618 18.6332 41.1645 16.42 41.1645 13.1271C41.1645 9.81838 39.0618 7.59264 35.93 7.59264ZM19.0517 7.38171C16.5563 7.38171 14.4727 9.03134 13.8773 11.4302H23.8523C23.4153 8.99671 21.5217 7.38171 19.0517 7.38171ZM84.1647 7.38171C81.6693 7.38171 79.5857 9.03134 78.9903 11.4302H88.9653C88.5283 8.99671 86.6347 7.38171 84.1647 7.38171Z" fill="#111111"/>
</svg>
